<svg width="24" height="24" viewBox="0 0 24 24" fill="none" xmlns="http://www.w3.org/2000/svg">
<g id="bell 1" clip-path="url(#clip0_166_1183)">
<path id="Vector" d="M21.1031 19.0994C21.0326 19.0536 20.5016 18.6816 19.97 17.5564C18.9936 15.49 18.7887 12.5792 18.7887 10.5012C18.7887 10.4921 18.7885 10.4832 18.7882 10.4742C18.7775 7.72781 17.133 5.36034 14.7797 4.29811V2.67356C14.7797 1.19934 13.5823 0 12.1106 0H11.8893C10.4176 0 9.22019 1.19934 9.22019 2.67356V4.29802C6.85901 5.36367 5.21121 7.74323 5.21121 10.5012C5.21121 12.5792 5.00627 15.49 4.02991 17.5564C3.4983 18.6816 2.96735 19.0535 2.89676 19.0994C2.59947 19.2369 2.4529 19.5548 2.52129 19.8768C2.59033 20.2021 2.89436 20.4263 3.22638 20.4263H8.38015C8.40893 22.4017 10.0211 24 12 24C13.9788 24 15.591 22.4017 15.6198 20.4263H20.7736C21.1055 20.4263 21.4096 20.2021 21.4787 19.8768C21.547 19.5548 21.4004 19.2369 21.1031 19.0994ZM10.6265 2.67356C10.6265 1.97602 11.193 1.40855 11.8894 1.40855H12.1106C12.807 1.40855 13.3735 1.97602 13.3735 2.67356V3.84155C12.9297 3.74981 12.4703 3.70153 11.9998 3.70153C11.5294 3.70153 11.0702 3.74977 10.6265 3.84141V2.67356H10.6265ZM12 22.5915C10.7966 22.5915 9.81494 21.625 9.7864 20.4264H14.2135C14.185 21.625 13.2034 22.5915 12 22.5915ZM14.8312 19.0177C14.8311 19.0177 4.8288 19.0177 4.8288 19.0177C4.95044 18.8282 5.07424 18.6135 5.19729 18.371C6.13966 16.5127 6.61751 13.8649 6.61751 10.5012C6.61751 7.5285 9.03199 5.11008 11.9997 5.11008C14.9675 5.11008 17.382 7.5285 17.382 10.5035C17.382 10.5122 17.3821 10.5208 17.3824 10.5294C17.3851 13.8797 17.8629 16.518 18.8027 18.371C18.9257 18.6136 19.0496 18.8282 19.1711 19.0177H14.8312Z" fill="white"/>
<circle id="Ellipse 1" cx="19" cy="19" r="5" fill="#FFAA2B"/>
</g>
<defs>
<clipPath id="clip0_166_1183">
<rect width="24" height="24" fill="white"/>
</clipPath>
</defs>
</svg>
